<svg xmlns="http://www.w3.org/2000/svg" width="83" height="80" viewBox="0 0 83 80" fill="none">
<rect x="-69.4209" y="-1.1886" width="219.459" height="114.084" rx="8" fill="#F7F5FF"/>
<path d="M102.594 49.2299L68.0384 48.7377C66.7861 48.7267 65.7606 47.6862 65.798 46.3653L66.488 4.87525C66.5016 3.61979 67.5416 2.58967 68.8592 2.6244L103.415 3.11657C104.667 3.12754 105.692 4.16804 105.655 5.48897L104.965 46.979C104.951 48.2345 103.911 49.2646 102.594 49.2299Z" fill="url(#paint0_linear_6990_14451)"/>
<path d="M105.86 20.7625L101.225 20.7064L101.185 23.6577L99.4284 23.6114L99.5665 17.9528L92.2067 17.869L92.3459 11.3953L82.701 11.2953L82.541 20.0598L71.0087 19.866L70.9402 22.2877L65.2067 22.2027L64.7422 50.2812L105.47 50.87L105.86 20.7625Z" fill="url(#paint1_linear_6990_14451)"/>
<path d="M73.8063 22.7378L72.7736 22.7326L72.7933 21.257L73.8261 21.2622L73.8063 22.7378Z" fill="url(#paint2_linear_6990_14451)"/>
<path d="M77.1004 22.8246L76.0915 22.7539L76.1112 21.2783L77.1202 21.3489L77.1004 22.8246Z" fill="url(#paint3_linear_6990_14451)"/>
<path d="M73.7607 25.9092L72.7517 25.8386L72.7715 24.3629L73.7804 24.4336L73.7607 25.9092Z" fill="url(#paint4_linear_6990_14451)"/>
<path d="M77.0132 25.9068L75.9805 25.9016L76.0002 24.426L77.033 24.4312L77.0132 25.9068Z" fill="url(#paint5_linear_6990_14451)"/>
<path d="M67.8189 26.1932L66.7861 26.188L66.8059 24.7124L67.8387 24.7176L67.8189 26.1932Z" fill="url(#paint6_linear_6990_14451)"/>
<path d="M67.7971 29.2991L66.7643 29.294L66.7841 27.8183L67.793 27.889L67.7971 29.2991Z" fill="url(#paint7_linear_6990_14451)"/>
<path d="M45.7412 121.157L80.7043 133.379C81.9864 133.797 83.3952 133.163 83.9115 131.852L98.6656 89.7689C99.0869 88.4836 98.4572 87.0742 97.1499 86.5608L62.1867 74.3391C60.9047 73.9207 59.4958 74.5553 58.9796 75.8662L44.2254 117.949C43.7693 119.295 44.4592 120.739 45.7412 121.157Z" fill="url(#paint8_linear_6990_14451)"/>
<path d="M1.03222 24.8394L35.9953 37.0611C37.2774 37.4795 38.6862 36.8448 39.2025 35.534L53.9566 -6.54912C54.3779 -7.83439 53.7482 -9.24376 52.4409 -9.75722L17.4778 -21.9789C16.1957 -22.3973 14.7869 -21.7626 14.2706 -20.4518L-0.483545 21.6313C-0.93967 22.9769 -0.249822 24.421 1.03222 24.8394Z" fill="url(#paint9_linear_6990_14451)"/>
<path d="M35.2376 10.3174L34.0782 13.9922L21.6282 9.86115L23.5706 16.7748L24.4221 17.1055L22.0528 24.265L5.54761 19.2408L10.7395 2.60919L35.2376 10.3174Z" fill="url(#paint10_linear_6990_14451)"/>
<path d="M20.3596 5.6694L10.7395 2.60913L17.2587 -2.15445L17.1923 -2.15436L20.3596 5.6694Z" fill="url(#paint11_linear_6990_14451)"/>
<path d="M35.2375 10.3174L20.3595 5.66948L17.2586 -2.15437L31.7409 2.34554L35.2375 10.3174Z" fill="url(#paint12_linear_6990_14451)"/>
<path d="M26.013 8.9334L24.5157 8.47117L25.1746 6.35771L26.6719 6.81994L26.013 8.9334Z" fill="url(#paint13_linear_6990_14451)"/>
<path d="M25.9407 6.55868L25.2818 8.67214" stroke="#A9B1FF" stroke-width="0.5" stroke-linecap="round" stroke-linejoin="round"/>
<path d="M31.7869 10.7385L30.2896 10.2762L30.9485 8.16276L32.4458 8.62499L31.7869 10.7385Z" fill="url(#paint14_linear_6990_14451)"/>
<path d="M31.7146 8.36373L31.0209 10.5375" stroke="#A9B1FF" stroke-width="0.5" stroke-linecap="round" stroke-linejoin="round"/>
<path d="M16.507 5.53673L15.0097 5.0745L15.6686 2.96104L17.1659 3.42327L16.507 5.53673Z" fill="url(#paint15_linear_6990_14451)"/>
<path d="M16.4347 3.16201L15.7758 5.27547" stroke="#A9B1FF" stroke-width="0.5" stroke-linecap="round" stroke-linejoin="round"/>
<path d="M22.0528 24.265L35.845 28.8491L38.2841 21.569L24.4317 16.9501L22.0528 24.265Z" fill="url(#paint16_linear_6990_14451)"/>
<path d="M39.4363 22.0733L23.5706 16.7748L21.6282 9.86113L37.4938 15.1597L39.4363 22.0733Z" fill="url(#paint17_linear_6990_14451)"/>
<path d="M13.5597 21.614L20.0902 23.7754L21.617 19.1865L15.0263 16.9903L13.5597 21.614Z" fill="url(#paint18_linear_6990_14451)"/>
<path d="M7.39982 17.9772L11.9772 19.4936L13.2759 15.5775C13.6972 14.2922 13.0326 12.9432 11.7506 12.5248C10.4685 12.1064 9.11982 12.7758 8.69853 14.061L7.39982 17.9772Z" fill="url(#paint19_linear_6990_14451)"/>
<path d="M6.4563 18.6391L12.3157 20.574L12.5976 19.5301L6.79839 17.6299L6.4563 18.6391Z" fill="url(#paint20_linear_6990_14451)"/>
<path d="M5.32294 19.3523L12.7999 21.8189L13.1072 20.87L5.66503 18.3431L5.32294 19.3523Z" fill="url(#paint21_linear_6990_14451)"/>
<path d="M21.8858 20.3875L14.9248 18.1384L21.8858 20.3875Z" fill="url(#paint22_linear_6990_14451)"/>
<path d="M40.5271 28.6562L36.3454 27.2878L41.5072 18.764L40.5271 28.6562Z" fill="url(#paint23_linear_6990_14451)"/>
<path d="M40.5854 21.6106L37.988 29.4429" stroke="#A9B1FF" stroke-width="0.5" stroke-linecap="round" stroke-linejoin="round"/>
<path d="M38.7199 26.6474L37.9857 25.4191" stroke="#A9B1FF" stroke-width="0.5" stroke-linecap="round" stroke-linejoin="round"/>
<path d="M39.5941 24.5778L40.8416 23.5282" stroke="#A9B1FF" stroke-width="0.5" stroke-linecap="round" stroke-linejoin="round"/>
<path d="M5.91578 70.0057L-28.0504 76.1363C-29.2814 76.3534 -30.4888 75.5051 -30.7065 74.2701L-38.1221 33.4141C-38.3399 32.1791 -37.4955 30.9691 -36.2644 30.752L-2.29825 24.6214C-1.06721 24.4043 0.14013 25.2526 0.357893 26.4876L7.77346 67.3436C8.05961 68.5665 7.21522 69.7766 5.91578 70.0057Z" fill="url(#paint24_linear_6990_14451)"/>
<path d="M-26.816 64.7411L1.35746 60.5515L-0.268851 48.5288L-28.4423 52.7183L-26.816 64.7411Z" fill="url(#paint25_linear_6990_14451)"/>
<path d="M2.23819 59.5473L-7.73901 60.9528L-7.58174 61.8448L2.31497 60.3827L2.23819 59.5473Z" fill="url(#paint26_linear_6990_14451)"/>
<path d="M1.59006 58.6711L-7.48596 59.9885L-7.32869 60.8804L1.67894 59.5751L1.59006 58.6711Z" fill="url(#paint27_linear_6990_14451)"/>
<g clip-path="url(#clip0_6990_14451)">
<g filter="url(#filter0_d_6990_14451)">
<path d="M66.4838 57.8122L27.0085 68.918C25.9977 69.1985 24.987 68.6376 24.7062 67.6279L12.9142 25.7846C12.6334 24.775 13.1949 23.7654 14.2057 23.4849L53.681 12.3791C54.6917 12.0986 55.7025 12.6595 55.9832 13.6691L67.7753 55.5125C68.056 56.5221 67.4384 57.5317 66.4838 57.8122Z" fill="white"/>
</g>
<path d="M59.8448 47.1032L26.7135 56.3913C25.9797 56.6164 25.246 56.1661 25.0202 55.4343L17.4006 28.3582C17.1748 27.6265 17.6263 26.8947 18.3601 26.6695L51.4914 17.3814C52.2252 17.1563 52.9589 17.6066 53.1847 18.3384L60.8043 45.4145C60.9737 46.1463 60.5786 46.8781 59.8448 47.1032Z" fill="#F7F5FF"/>
<mask id="mask0_6990_14451" style="mask-type:alpha" maskUnits="userSpaceOnUse" x="17" y="17" width="44" height="40">
<path d="M59.8448 47.1032L26.7135 56.3913C25.9797 56.6164 25.246 56.1661 25.0202 55.4343L17.4006 28.3582C17.1748 27.6265 17.6263 26.8947 18.3601 26.6695L51.4914 17.3814C52.2252 17.1563 52.9589 17.6066 53.1847 18.3384L60.8043 45.4145C60.9737 46.1463 60.5786 46.8781 59.8448 47.1032Z" fill="white"/>
</mask>
<g mask="url(#mask0_6990_14451)">
<path d="M18.4039 55.4997L28.6289 36.6307C29.1907 35.57 30.5391 35.2351 31.6065 35.8491L38.9662 40.7059L30.7076 56.5045" fill="url(#paint28_linear_6990_14451)"/>
<path d="M30.9324 55.7789L41.8877 35.4584C42.3933 34.4535 43.6293 34.0628 44.6406 34.5652L67.5625 45.2837" fill="url(#paint29_linear_6990_14451)"/>
<path d="M17.9545 56.6721L28.6289 36.5749C29.1907 35.5142 30.539 35.1793 31.6065 35.7933L38.8539 40.2594" stroke="#9792FF" stroke-width="0.576" stroke-linecap="round" stroke-linejoin="round"/>
<path d="M30.9324 55.7789L41.8877 35.4584C42.3933 34.4535 43.6293 34.0628 44.6406 34.5652L59.9218 41.7108" stroke="#9792FF" stroke-width="0.576" stroke-linecap="round" stroke-linejoin="round"/>
<ellipse cx="42.8989" cy="27.4195" rx="4.71922" ry="4.68934" fill="#9792FF"/>
</g>
<path d="M29.0331 66.3233C28.9966 66.3353 28.9646 66.3337 28.9371 66.3186C28.9087 66.2997 28.8899 66.2716 28.8806 66.2344L27.9693 62.5852C27.9591 62.5442 27.9621 62.5089 27.9784 62.4794C27.9938 62.4461 28.0197 62.4234 28.0562 62.4114L28.2969 62.3322C28.3334 62.3201 28.3626 62.3186 28.3846 62.3275C28.4065 62.3364 28.4294 62.349 28.4532 62.3654L31.0061 64.6455L30.3 61.8178C30.2898 61.7768 30.2928 61.7415 30.3091 61.7119C30.3281 61.6775 30.3559 61.6542 30.3923 61.6422L30.6385 61.5611C30.6787 61.5479 30.7129 61.5508 30.7413 61.5696C30.7724 61.5836 30.7931 61.611 30.8033 61.652L31.7132 65.2957C31.7225 65.3329 31.7177 65.3688 31.6986 65.4033C31.6833 65.4366 31.6573 65.4592 31.6209 65.4712L31.3747 65.5523C31.3127 65.5727 31.2624 65.561 31.2238 65.5173L28.6779 63.2651L29.3785 66.0705C29.3878 66.1077 29.3829 66.1436 29.3639 66.1781C29.3476 66.2076 29.3212 66.2284 29.2847 66.2404L29.0331 66.3233ZM35.182 64.3591C34.7079 64.5153 34.3097 64.5093 33.9875 64.3412C33.6643 64.1694 33.4312 63.8288 33.2883 63.3195C33.2567 63.2089 33.2153 63.0512 33.1642 62.8463C33.113 62.6414 33.0757 62.4843 33.0524 62.3751C32.9405 61.8636 32.9851 61.4336 33.1862 61.0852C33.391 60.7355 33.7213 60.4856 34.1773 60.3355C34.6332 60.1854 35.0268 60.1969 35.3582 60.37C35.6896 60.5431 35.9258 60.8806 36.067 61.3825C36.1282 61.5962 36.1709 61.7515 36.1951 61.8483C36.2184 61.9415 36.2543 62.101 36.3028 62.3269C36.4166 62.8459 36.3761 63.2765 36.1813 63.6188C35.9893 63.9562 35.6562 64.203 35.182 64.3591ZM35.0662 63.8953C35.358 63.7992 35.5691 63.6329 35.6995 63.3965C35.829 63.1563 35.8545 62.8475 35.7761 62.4701C35.7276 62.2442 35.694 62.094 35.6754 62.0195C35.6549 61.9375 35.614 61.7897 35.5528 61.576C35.4452 61.2082 35.281 60.9619 35.0604 60.837C34.8397 60.7121 34.5835 60.6977 34.2917 60.7937C33.9999 60.8898 33.7874 61.0586 33.6543 61.3C33.5248 61.5402 33.5011 61.8483 33.5832 62.2245C33.6065 62.3337 33.6419 62.4834 33.6894 62.6734C33.7359 62.8596 33.7749 63.0081 33.8065 63.1186C33.9105 63.4876 34.0728 63.7345 34.2935 63.8594C34.5132 63.9806 34.7708 63.9926 35.0662 63.8953ZM41.1474 62.3345C41.1109 62.3465 41.0789 62.3449 41.0515 62.3298C41.0231 62.3109 41.0042 62.2828 40.9949 62.2456L40.0837 58.5964C40.0734 58.5554 40.0765 58.5201 40.0928 58.4905C40.1081 58.4573 40.1341 58.4346 40.1705 58.4226L41.5547 57.9668C41.9669 57.8311 42.3152 57.8273 42.5998 57.9554C42.8872 58.0785 43.0792 58.3338 43.1759 58.7212C43.2727 59.1087 43.2277 59.442 43.0408 59.7213C42.8576 59.9993 42.56 60.2062 42.1478 60.3419L41.163 60.6662L41.5147 62.0744C41.524 62.1117 41.5191 62.1476 41.5001 62.1821C41.4838 62.2116 41.4574 62.2324 41.4209 62.2444L41.1474 62.3345ZM42.0074 59.8983C42.5582 59.7169 42.7726 59.3822 42.6507 58.8942C42.5912 58.6557 42.4763 58.496 42.3061 58.415C42.1395 58.3327 41.9176 58.3372 41.6404 58.4285L40.6829 58.7438L41.05 60.2135L42.0074 59.8983ZM45.7465 60.8202C45.71 60.8322 45.6781 60.8306 45.6506 60.8154C45.6222 60.7966 45.6033 60.7685 45.594 60.7313L44.6828 57.082C44.6725 57.0411 44.6756 57.0058 44.6919 56.9762C44.7072 56.9429 44.7332 56.9203 44.7696 56.9083L45.0322 56.8218C45.0724 56.8086 45.1066 56.8114 45.135 56.8303C45.1661 56.8443 45.1868 56.8717 45.197 56.9127L45.585 58.4663L47.4889 57.8394L47.101 56.2858C47.0907 56.2448 47.0938 56.2096 47.1101 56.18C47.1291 56.1455 47.1568 56.1223 47.1933 56.1103L47.4559 56.0238C47.496 56.0106 47.5303 56.0134 47.5587 56.0323C47.5898 56.0462 47.6105 56.0737 47.6207 56.1147L48.532 59.7639C48.5413 59.8011 48.5364 59.837 48.5174 59.8715C48.4975 59.9023 48.4693 59.9236 48.4328 59.9357L48.1702 60.0221C48.1337 60.0341 48.0999 60.0332 48.0688 60.0192C48.0404 60.0003 48.0215 59.9723 48.0122 59.935L47.6103 58.3256L45.7064 58.9525L46.1083 60.5619C46.1176 60.5992 46.1128 60.635 46.0937 60.6695C46.0738 60.7003 46.0456 60.7217 46.0091 60.7337L45.7465 60.8202ZM51.997 58.8226C51.5228 58.9787 51.1246 58.9727 50.8024 58.8046C50.4793 58.6329 50.2462 58.2923 50.1032 57.783C50.0717 57.6724 50.0303 57.5147 49.9791 57.3097C49.9279 57.1048 49.8907 56.9478 49.8674 56.8385C49.7554 56.327 49.8 55.8971 50.0012 55.5486C50.2059 55.1989 50.5363 54.949 50.9922 54.7989C51.4481 54.6488 51.8418 54.6603 52.1732 54.8334C52.5046 55.0066 52.7408 55.3441 52.8819 55.8459C52.9432 56.0596 52.9859 56.2149 53.0101 56.3118C53.0333 56.4049 53.0692 56.5644 53.1178 56.7904C53.2316 57.3093 53.1911 57.7399 52.9963 58.0823C52.8043 58.4197 52.4711 58.6665 51.997 58.8226ZM51.8812 58.3587C52.173 58.2627 52.3841 58.0964 52.5145 57.8599C52.644 57.6197 52.6695 57.3109 52.591 56.9336C52.5425 56.7076 52.5089 56.5574 52.4903 56.4829C52.4699 56.4009 52.429 56.2531 52.3678 56.0394C52.2601 55.6717 52.096 55.4253 51.8753 55.3004C51.6547 55.1755 51.3984 55.1611 51.1066 55.2572C50.8149 55.3533 50.6024 55.522 50.4693 55.7634C50.3398 56.0036 50.3161 56.3118 50.3982 56.6879C50.4215 56.7972 50.4569 56.9468 50.5043 57.1368C50.5509 57.3231 50.5899 57.4715 50.6215 57.5821C50.7254 57.951 50.8877 58.198 51.1084 58.3229C51.3281 58.4441 51.5857 58.456 51.8812 58.3587ZM56.2841 57.3505C56.2477 57.3625 56.2139 57.3615 56.1828 57.3476C56.1544 57.3287 56.1355 57.3006 56.1262 57.2634L55.3015 53.9607L54.2455 54.3083C54.2091 54.3203 54.1753 54.3194 54.1442 54.3054C54.1158 54.2865 54.0969 54.2585 54.0876 54.2212L54.0332 54.0033C54.023 53.9623 54.026 53.927 54.0423 53.8975C54.0613 53.863 54.0891 53.8397 54.1255 53.8277L56.7516 52.963C56.7918 52.9498 56.826 52.9527 56.8544 52.9715C56.8819 52.9867 56.9007 53.0147 56.911 53.0557L56.9654 53.2737C56.9747 53.3109 56.9698 53.3468 56.9508 53.3813C56.9345 53.4108 56.9081 53.4316 56.8716 53.4436L55.8212 53.7895L56.646 57.0923C56.6553 57.1295 56.6504 57.1654 56.6314 57.1999C56.6114 57.2306 56.5832 57.252 56.5467 57.264L56.2841 57.3505ZM60.8746 55.8995C60.4005 56.0556 60.0023 56.0496 59.6801 55.8816C59.3569 55.7098 59.1238 55.3692 58.9809 54.8599C58.9493 54.7493 58.9079 54.5916 58.8568 54.3867C58.8056 54.1818 58.7683 54.0247 58.745 53.9154C58.6331 53.4039 58.6777 52.974 58.8788 52.6255C59.0836 52.2759 59.4139 52.026 59.8699 51.8758C60.3258 51.7257 60.7194 51.7372 61.0508 51.9103C61.3822 52.0835 61.6185 52.421 61.7596 52.9228C61.8208 53.1365 61.8635 53.2918 61.8877 53.3887C61.911 53.4818 61.9469 53.6413 61.9954 53.8673C62.1092 54.3862 62.0687 54.8169 61.874 55.1592C61.6819 55.4966 61.3488 55.7434 60.8746 55.8995ZM60.7588 55.4356C61.0506 55.3396 61.2617 55.1733 61.3921 54.9368C61.5216 54.6966 61.5471 54.3878 61.4687 54.0105C61.4202 53.7845 61.3866 53.6343 61.368 53.5598C61.3475 53.4778 61.3067 53.33 61.2454 53.1163C61.1378 52.7486 60.9736 52.5022 60.753 52.3773C60.5323 52.2524 60.2761 52.238 59.9843 52.3341C59.6925 52.4302 59.48 52.5989 59.3469 52.8403C59.2174 53.0805 59.1937 53.3887 59.2758 53.7648C59.2991 53.8741 59.3345 54.0237 59.382 54.2137C59.4285 54.4 59.4675 54.5484 59.4991 54.659C59.6031 55.0279 59.7654 55.2749 59.9861 55.3998C60.2058 55.521 60.4634 55.5329 60.7588 55.4356ZM65.513 54.3722C65.2139 54.4707 64.9411 54.5081 64.6944 54.4845C64.4513 54.4597 64.2519 54.3883 64.0961 54.2703C63.9431 54.1473 63.8401 53.9957 63.7872 53.8156C63.7798 53.7858 63.7842 53.7561 63.8005 53.7265C63.8168 53.697 63.8414 53.6768 63.8742 53.666L64.1423 53.5777C64.2079 53.5561 64.2628 53.5783 64.307 53.6444C64.3789 53.7901 64.5058 53.8955 64.6879 53.9605C64.8726 54.0206 65.1091 54.0033 65.3972 53.9084C65.7072 53.8063 65.9249 53.6742 66.0502 53.512C66.1754 53.3498 66.2134 53.1699 66.1641 52.9725C66.1325 52.8458 66.0681 52.7541 65.9711 52.6973C65.8777 52.6394 65.7487 52.6052 65.5843 52.5949C65.4226 52.5796 65.1829 52.5759 64.8651 52.5837C64.5638 52.5942 64.3176 52.5805 64.1266 52.5426C63.9392 52.5035 63.7868 52.4307 63.6694 52.3242C63.5511 52.214 63.4659 52.0546 63.4138 51.846C63.3635 51.6448 63.3718 51.4485 63.4385 51.2572C63.5042 51.0622 63.6263 50.887 63.8045 50.7315C63.9819 50.5723 64.2073 50.4477 64.4809 50.3576C64.7654 50.2639 65.021 50.2362 65.2476 50.2745C65.477 50.3078 65.6641 50.3853 65.809 50.507C65.9529 50.6249 66.048 50.7609 66.0944 50.915C66.1028 50.9485 66.0988 50.98 66.0825 51.0096C66.0662 51.0391 66.0416 51.0593 66.0088 51.0701L65.7352 51.1602C65.7061 51.1698 65.6764 51.1695 65.6462 51.1593C65.616 51.1491 65.5908 51.1271 65.5706 51.0935C65.5087 50.9405 65.3881 50.837 65.2089 50.7832C65.0296 50.7293 64.8251 50.7402 64.5953 50.8158C64.3473 50.8975 64.1629 51.0127 64.0421 51.1613C63.9204 51.3062 63.8838 51.4755 63.9321 51.6692C63.9647 51.7996 64.024 51.895 64.1102 51.9553C64.1999 52.0145 64.322 52.0529 64.4764 52.0706C64.6345 52.0871 64.8587 52.0919 65.1491 52.085C65.4815 52.0723 65.7463 52.0819 65.9437 52.1137C66.1448 52.1442 66.3058 52.2122 66.4269 52.3175C66.5469 52.419 66.633 52.5741 66.6851 52.7828C66.7726 53.133 66.7097 53.45 66.4964 53.734C66.2858 54.013 65.958 54.2257 65.513 54.3722Z" fill="#9792FF"/>
</g>
<defs>
<filter id="filter0_d_6990_14451" x="9.84204" y="9.30701" width="65.0013" height="66.683" filterUnits="userSpaceOnUse" color-interpolation-filters="sRGB">
<feFlood flood-opacity="0" result="BackgroundImageFix"/>
<feColorMatrix in="SourceAlpha" type="matrix" values="0 0 0 0 0 0 0 0 0 0 0 0 0 0 0 0 0 0 127 0" result="hardAlpha"/>
<feOffset dx="2" dy="2"/>
<feGaussianBlur stdDeviation="2.5"/>
<feColorMatrix type="matrix" values="0 0 0 0 0.316617 0 0 0 0 0.286786 0 0 0 0 0.764917 0 0 0 0.3 0"/>
<feBlend mode="normal" in2="BackgroundImageFix" result="effect1_dropShadow_6990_14451"/>
<feBlend mode="normal" in="SourceGraphic" in2="effect1_dropShadow_6990_14451" result="shape"/>
</filter>
<linearGradient id="paint0_linear_6990_14451" x1="102.211" y1="41.5349" x2="103.307" y2="3.681" gradientUnits="userSpaceOnUse">
<stop stop-color="white" stop-opacity="0.01"/>
<stop offset="1" stop-color="white"/>
</linearGradient>
<linearGradient id="paint1_linear_6990_14451" x1="115.238" y1="69.7929" x2="117.48" y2="10.6018" gradientUnits="userSpaceOnUse">
<stop stop-color="white" stop-opacity="0.01"/>
<stop offset="1" stop-color="#A9B1FF"/>
</linearGradient>
<linearGradient id="paint2_linear_6990_14451" x1="82.563" y1="34.3347" x2="80.236" y2="12.9825" gradientUnits="userSpaceOnUse">
<stop stop-color="white" stop-opacity="0.01"/>
<stop offset="1" stop-color="white"/>
</linearGradient>
<linearGradient id="paint3_linear_6990_14451" x1="86.1127" y1="34.6631" x2="84.4546" y2="13.1738" gradientUnits="userSpaceOnUse">
<stop stop-color="white" stop-opacity="0.01"/>
<stop offset="1" stop-color="white"/>
</linearGradient>
<linearGradient id="paint4_linear_6990_14451" x1="82.8408" y1="34.6153" x2="81.1827" y2="13.1261" gradientUnits="userSpaceOnUse">
<stop stop-color="white" stop-opacity="0.01"/>
<stop offset="1" stop-color="white"/>
</linearGradient>
<linearGradient id="paint5_linear_6990_14451" x1="85.835" y1="34.3825" x2="83.508" y2="13.0303" gradientUnits="userSpaceOnUse">
<stop stop-color="white" stop-opacity="0.01"/>
<stop offset="1" stop-color="white"/>
</linearGradient>
<linearGradient id="paint6_linear_6990_14451" x1="76.5602" y1="38.6201" x2="74.2332" y2="17.268" gradientUnits="userSpaceOnUse">
<stop stop-color="white" stop-opacity="0.01"/>
<stop offset="1" stop-color="white"/>
</linearGradient>
<linearGradient id="paint7_linear_6990_14451" x1="76.838" y1="38.9008" x2="75.1799" y2="17.4115" gradientUnits="userSpaceOnUse">
<stop stop-color="white" stop-opacity="0.01"/>
<stop offset="1" stop-color="white"/>
</linearGradient>
<linearGradient id="paint8_linear_6990_14451" x1="58.7304" y1="78.4146" x2="46.0028" y2="121.751" gradientUnits="userSpaceOnUse">
<stop stop-color="white"/>
<stop offset="1" stop-color="white" stop-opacity="0.01"/>
</linearGradient>
<linearGradient id="paint9_linear_6990_14451" x1="14.0215" y1="-17.9034" x2="1.2938" y2="25.4326" gradientUnits="userSpaceOnUse">
<stop stop-color="white"/>
<stop offset="1" stop-color="white" stop-opacity="0.01"/>
</linearGradient>
<linearGradient id="paint10_linear_6990_14451" x1="46.8241" y1="81.8535" x2="76.0328" y2="6.2244" gradientUnits="userSpaceOnUse">
<stop stop-color="white" stop-opacity="0.01"/>
<stop offset="1" stop-color="#A9B1FF"/>
</linearGradient>
<linearGradient id="paint11_linear_6990_14451" x1="32.3147" y1="58.1586" x2="56.6316" y2="8.79704" gradientUnits="userSpaceOnUse">
<stop stop-color="white" stop-opacity="0.01"/>
<stop offset="1" stop-color="#A9B1FF"/>
</linearGradient>
<linearGradient id="paint12_linear_6990_14451" x1="63.6573" y1="42.3486" x2="78.5449" y2="12.9187" gradientUnits="userSpaceOnUse">
<stop stop-color="#A9B1FF"/>
<stop offset="1" stop-color="white" stop-opacity="0.01"/>
</linearGradient>
<linearGradient id="paint13_linear_6990_14451" x1="27.6955" y1="20.3074" x2="29.138" y2="7.98313" gradientUnits="userSpaceOnUse">
<stop stop-color="white" stop-opacity="0.01"/>
<stop offset="1" stop-color="white"/>
</linearGradient>
<linearGradient id="paint14_linear_6990_14451" x1="33.5499" y1="21.8071" x2="34.9924" y2="9.48282" gradientUnits="userSpaceOnUse">
<stop stop-color="white" stop-opacity="0.01"/>
<stop offset="1" stop-color="white"/>
</linearGradient>
<linearGradient id="paint15_linear_6990_14451" x1="17.9585" y1="17.813" x2="19.401" y2="5.48875" gradientUnits="userSpaceOnUse">
<stop stop-color="white" stop-opacity="0.01"/>
<stop offset="1" stop-color="white"/>
</linearGradient>
<linearGradient id="paint16_linear_6990_14451" x1="18.0606" y1="-8.26153" x2="5.70491" y2="18.1237" gradientUnits="userSpaceOnUse">
<stop stop-color="white" stop-opacity="0.01"/>
<stop offset="1" stop-color="#A9B1FF"/>
</linearGradient>
<linearGradient id="paint17_linear_6990_14451" x1="73.5911" y1="49.6857" x2="84.0943" y2="17.8099" gradientUnits="userSpaceOnUse">
<stop stop-color="#A9B1FF"/>
<stop offset="1" stop-color="white" stop-opacity="0.01"/>
</linearGradient>
<linearGradient id="paint18_linear_6990_14451" x1="21.9485" y1="27.8759" x2="25.8168" y2="18.6343" gradientUnits="userSpaceOnUse">
<stop stop-color="white" stop-opacity="0.01"/>
<stop offset="1" stop-color="white"/>
</linearGradient>
<linearGradient id="paint19_linear_6990_14451" x1="14.1572" y1="23.5667" x2="17.0507" y2="10.4724" gradientUnits="userSpaceOnUse">
<stop stop-color="white" stop-opacity="0.01"/>
<stop offset="1" stop-color="white"/>
</linearGradient>
<linearGradient id="paint20_linear_6990_14451" x1="17.7568" y1="30.8367" x2="21.816" y2="23.3586" gradientUnits="userSpaceOnUse">
<stop stop-color="white" stop-opacity="0.01"/>
<stop offset="1" stop-color="#A9B1FF"/>
</linearGradient>
<linearGradient id="paint21_linear_6990_14451" x1="18.8597" y1="32.8238" x2="23.0275" y2="25.2488" gradientUnits="userSpaceOnUse">
<stop stop-color="white" stop-opacity="0.01"/>
<stop offset="1" stop-color="#A9B1FF"/>
</linearGradient>
<linearGradient id="paint22_linear_6990_14451" x1="-nan" y1="-nan" x2="-nan" y2="-nan" gradientUnits="userSpaceOnUse">
<stop stop-color="white" stop-opacity="0.01"/>
<stop offset="1" stop-color="white"/>
</linearGradient>
<linearGradient id="paint23_linear_6990_14451" x1="41.701" y1="28.8877" x2="38.8284" y2="19.023" gradientUnits="userSpaceOnUse">
<stop stop-color="#C7D4FF" stop-opacity="0.01"/>
<stop offset="1" stop-color="#9792FF"/>
</linearGradient>
<linearGradient id="paint24_linear_6990_14451" x1="4.8286" y1="70.571" x2="-0.837859" y2="31.8028" gradientUnits="userSpaceOnUse">
<stop stop-color="white" stop-opacity="0.01"/>
<stop offset="1" stop-color="white"/>
</linearGradient>
<linearGradient id="paint25_linear_6990_14451" x1="29.4653" y1="72.1699" x2="23.4085" y2="36.7297" gradientUnits="userSpaceOnUse">
<stop stop-color="white" stop-opacity="0.01"/>
<stop offset="1" stop-color="#A9B1FF"/>
</linearGradient>
<linearGradient id="paint26_linear_6990_14451" x1="32.4919" y1="59.2052" x2="31.0647" y2="51.097" gradientUnits="userSpaceOnUse">
<stop stop-color="white" stop-opacity="0.01"/>
<stop offset="1" stop-color="#A9B1FF"/>
</linearGradient>
<linearGradient id="paint27_linear_6990_14451" x1="29.3428" y1="59.7601" x2="27.9161" y2="51.6519" gradientUnits="userSpaceOnUse">
<stop stop-color="white" stop-opacity="0.01"/>
<stop offset="1" stop-color="#A9B1FF"/>
</linearGradient>
<linearGradient id="paint28_linear_6990_14451" x1="62.4093" y1="76.1246" x2="47.3176" y2="30.6686" gradientUnits="userSpaceOnUse">
<stop stop-color="white" stop-opacity="0.01"/>
<stop offset="1" stop-color="#A9B1FF"/>
</linearGradient>
<linearGradient id="paint29_linear_6990_14451" x1="96.9694" y1="73.6283" x2="91.8657" y2="26.9652" gradientUnits="userSpaceOnUse">
<stop stop-color="white" stop-opacity="0.01"/>
<stop offset="1" stop-color="#A9B1FF"/>
</linearGradient>
<clipPath id="clip0_6990_14451">
<rect width="58.3482" height="60.0899" fill="white" transform="translate(12.6278 11.8413)"/>
</clipPath>
</defs>
</svg>